<?xml version="1.0" encoding="utf-8"?>
<!-- Generator: Adobe Illustrator 26.0.3, SVG Export Plug-In . SVG Version: 6.00 Build 0)  -->
<svg version="1.1" id="Layer_1" xmlns="http://www.w3.org/2000/svg" xmlns:xlink="http://www.w3.org/1999/xlink" x="0px" y="0px"
	 viewBox="0 0 84 84" style="enable-background:new 0 0 84 84;" xml:space="preserve">
<path fill="white" d="M69.7,37.4L43.2,1.6c-0.4-0.8-1.3-1.1-2.1-0.7c-0.3,0.1-0.5,0.4-0.7,0.7L13.8,37.4c-0.5,0.7-0.2,1.7,0.5,2.1c0,0,0,0,0.1,0
	L41,53.1c0.5,0.3,1.2,0.3,1.7,0l26.6-13.6C70,39.1,70.2,38.2,69.7,37.4C69.8,37.4,69.8,37.4,69.7,37.4z M67.6,50.2L42.8,64.4
	c-0.6,0.4-1.4,0.4-1.9,0L16,50.2c-0.3-0.2-0.7-0.2-0.9,0.1c-0.2,0.3-0.2,0.7,0.1,0.9l0,0l25.1,31.1c0.6,0.9,1.7,1.1,2.6,0.6
	c0.2-0.1,0.4-0.3,0.6-0.6l25-31.1c0.3-0.2,0.3-0.6,0.1-0.9C68.3,50,67.8,50,67.6,50.2L67.6,50.2z"/>
</svg>
