<svg version="1.1" xmlns="http://www.w3.org/2000/svg" viewBox="0 0 256 255.8">
	<g>
		<path fill="#48A9A6" d="M128,0c70.6,0,128,57.3,128,127.9s-57.4,127.9-128,127.9S0,198.5,0,127.9S57.4,0,128,0z"/>
		<polygon fill="#FFFFFF" points="62.3,88.6 114.9,88.6 114.9,62.3 62.3,62.3"/>
		<polygon fill="#FFFFFF" points="141.1,88.6 193.7,88.6 193.7,62.3 141.1,62.3"/>
		<polygon fill="#FFFFFF" points="193.7,141.1 167.4,141.1 167.4,167.4 141.1,167.4 141.1,193.7 193.7,193.7"/>
		<polygon fill="#FFFFFF" points="114.9,193.7 114.9,167.4 88.6,167.4 88.6,141.1 62.3,141.1 62.3,193.7"/>
	</g>
</svg>
