<svg viewBox="0 0 606 773" version="1.1" xmlns="http://www.w3.org/2000/svg">
    <g id="logomark-blue" stroke="none" stroke-width="1" fill="none" fill-rule="evenodd">
        <rect fill="#FFFFFF" x="0" y="0" width="606" height="773"></rect>
        <path d="M269.733189,8.3951596 C288.399211,-1.4650532 316.801317,-1.4650532 335.467339,8.3951596 L335.467339,8.3951596 L525.937057,109.009634 C537.178812,114.948023 543.352901,123.796595 544.459327,132.93159 L544.640501,132.931642 L544.640501,638.669601 C544.39293,648.635225 538.160859,658.533217 525.937057,664.990366 L525.937057,664.990366 L335.467339,765.60484 C316.801317,775.465053 288.399211,775.465053 269.733189,765.60484 L269.733189,765.60484 L79.2634702,664.990366 C67.0909323,658.560296 61.2491403,648.592828 60.9597625,638.669601 C60.9300929,637.652182 60.9274896,636.813371 60.9588732,636.121668 L60.9597625,136.337022 C60.9313654,135.634475 60.9310613,134.934041 60.9590778,134.236545 L60.9597625,132.931642 L61.0449165,132.931685 C61.8908934,123.696226 67.7846788,115.073236 79.2634702,109.009634 L79.2634702,109.009634 Z M514.66,415.079 L335.467339,509.737414 C316.801317,519.597627 288.399211,519.597627 269.733189,509.737414 L269.733189,509.737414 L90.939,415.29 L90.939,637.675 L269.733189,731.62144 C280.299073,737.266946 291.284641,742.767534 301.983354,743.007561 L302.600264,743.015536 C313.2773,743.051307 323.642728,737.628902 334.154436,732.495987 L334.154436,732.495987 L514.66,636.865 L514.66,415.079 Z M29.9802111,627.675298 C29.9802111,647.052364 32.2319249,659.788088 36.7026959,668.760375 C40.4082968,676.19706 45.9682836,681.880307 56.1204541,688.795593 L56.7000281,689.18836 C58.9279698,690.690602 61.3823107,692.264563 64.3698575,694.114032 L67.8929644,696.272111 L78.7115528,702.801733 L63.1947797,728.457718 L51.0860258,721.14357 L49.0507411,719.893867 C45.5495681,717.732455 42.647722,715.875518 39.9409581,714.050419 C11.007001,694.541021 0.216145924,673.270679 0.00322221838,629.023186 L1.98951966e-13,627.675298 L29.9802111,627.675298 Z M287.610364,279.526526 C286.22193,280.003018 284.920908,280.554534 283.734822,281.181077 L283.734822,281.181077 L93.2651035,381.795551 C93.0652279,381.901135 92.8746128,382.0057 92.6931653,382.108913 L92.6931653,382.108913 L92.5319228,382.202486 L92.8309713,382.373717 L93.2651035,382.60942 L283.734822,483.223895 C284.920908,483.850437 286.22193,484.401954 287.610364,484.878445 Z M317.590164,279.526526 L317.590164,484.878445 C318.978597,484.401954 320.27962,483.850437 321.465705,483.223895 L321.465705,483.223895 L511.935424,382.60942 C512.1353,382.503837 512.325915,382.399271 512.507362,382.296059 L512.507362,382.296059 L512.668605,382.202486 L512.369556,382.031255 L511.935424,381.795551 L321.465705,281.181077 C320.27962,280.554534 318.978597,280.003018 317.590164,279.526526 Z M514.66,168.807 L343.795,259.066 L514.66,349.325 L514.66,168.807 Z M90.939,169.018 L90.939,349.114 L261.405,259.066 L90.939,169.018 Z M321.465705,34.9086792 C311.560647,29.6763923 293.639881,29.6763923 283.734822,34.9086792 L283.734822,34.9086792 L93.2651035,135.523154 C93.0652279,135.628737 92.8746128,135.733303 92.6931653,135.836515 L92.6931653,135.836515 L92.5319228,135.930088 L92.8309713,136.101319 L93.2651035,136.337022 L283.734822,236.951497 C293.639881,242.183784 311.560647,242.183784 321.465705,236.951497 L321.465705,236.951497 L511.935424,136.337022 C512.1353,136.231439 512.325915,136.126873 512.507362,136.023661 L512.507362,136.023661 L512.668605,135.930088 L512.369556,135.758857 L511.935424,135.523154 Z M542.80522,45.9420753 L554.913974,53.2562228 L556.949259,54.5059262 C560.450432,56.6673374 563.352278,58.5242751 566.059042,60.349374 C594.992999,79.8587719 605.783854,101.129114 605.996778,145.376607 L606,146.724495 L576.019789,146.724495 C576.019789,127.347429 573.768075,114.611705 569.297304,105.639418 C565.591703,98.2027332 560.031716,92.5194856 549.879546,85.6041999 L549.299972,85.2114328 C547.07203,83.7091909 544.617689,82.1352299 541.630143,80.2857605 L538.107036,78.1276817 L527.288447,71.5980594 L542.80522,45.9420753 Z" id="Combined-Shape" fill="#1969FF" fill-rule="nonzero"></path>
    </g>
</svg>
